HIERARCHY
ROOT hip
{
  OFFSET 0 0 0
  CHANNELS 6 Xposition Yposition Zposition Zrotation Yrotation Xrotation
  JOINT abdomen
  {
    OFFSET 0 20.6881 -0.73152
    CHANNELS 3 Zrotation Xrotation Yrotation
    JOINT chest
    {
      OFFSET 0 11.7043 -0.48768
      CHANNELS 3 Zrotation Xrotation Yrotation
      JOINT neck
      {
        OFFSET 0 22.1894 -2.19456
        CHANNELS 3 Zrotation Xrotation Yrotation
        JOINT head
        {
          OFFSET -0.24384 7.07133 1.2192
          CHANNELS 3 Zrotation Xrotation Yrotation
          JOINT leftEye
          {
            OFFSET 4.14528 8.04674 8.04672
            CHANNELS 3 Zrotation Xrotation Yrotation
            End Site
            {
              OFFSET 1 0 0
            }
          }
          JOINT rightEye
          {
            OFFSET -3.6576 8.04674 8.04672
            CHANNELS 3 Zrotation Xrotation Yrotation
            End Site
            {
              OFFSET 1 0 0
            }
          }
        }
      }
      JOINT rCollar
      {
        OFFSET -2.68224 19.2634 -4.8768
        CHANNELS 3 Zrotation Xrotation Yrotation
        JOINT rShldr
        {
          OFFSET -8.77824 -1.95073 1.46304
          CHANNELS 3 Zrotation Xrotation Yrotation
          JOINT rForeArm
          {
            OFFSET -28.1742 -1.7115 0.48768
            CHANNELS 3 Zrotation Xrotation Yrotation
            JOINT rHand
            {
              OFFSET -22.5879 0.773209 7.07136
              CHANNELS 3 Zrotation Xrotation Yrotation
              JOINT rThumb1
              {
                OFFSET -1.2192 -0.487915 3.41376
                CHANNELS 3 Zrotation Xrotation Yrotation
                JOINT rThumb2
                {
                  OFFSET -3.37035 -0.52449 3.41376
                  CHANNELS 3 Zrotation Xrotation Yrotation
                  End Site
                  {
                    OFFSET -1.78271 -1.18214 1.43049
                  }
                }
              }
              JOINT rIndex1
              {
                OFFSET -7.75947 0.938293 5.60832
                CHANNELS 3 Zrotation Xrotation Yrotation
                JOINT rIndex2
                {
                  OFFSET -2.54057 -0.884171 1.56538
                  CHANNELS 3 Zrotation Xrotation Yrotation
                  End Site
                  {
                    OFFSET -1.62519 -0.234802 1.16502
                  }
                }
              }
              JOINT rMid1
              {
                OFFSET -8.24714 1.18213 3.41376
                CHANNELS 3 Zrotation Xrotation Yrotation
                JOINT rMid2
                {
                  OFFSET -3.10165 -0.590103 1.0647
                  CHANNELS 3 Zrotation Xrotation Yrotation
                  End Site
                  {
                    OFFSET -2.48547 -0.328903 0.83742
                  }
                }
              }
              JOINT rRing1
              {
                OFFSET -8.82822 0.546677 1.51678
                CHANNELS 3 Zrotation Xrotation Yrotation
                JOINT rRing2
                {
                  OFFSET -2.60934 -0.819778 -0.0198488
                  CHANNELS 3 Zrotation Xrotation Yrotation
                  End Site
                  {
                    OFFSET -2.33842 -0.294052 0.168128
                  }
                }
              }
              JOINT rPinky1
              {
                OFFSET -8.27202 -0.0477905 -0.4584
                CHANNELS 3 Zrotation Xrotation Yrotation
                JOINT rPinky2
                {
                  OFFSET -1.82734 -0.647385 -0.700984
                  CHANNELS 3 Zrotation Xrotation Yrotation
                  End Site
                  {
                    OFFSET -1.69225 -0.51767 -0.607171
                  }
                }
              }
            }
          }
        }
      }
      JOINT lCollar
      {
        OFFSET 2.68224 19.2634 -4.8768
        CHANNELS 3 Zrotation Xrotation Yrotation
        JOINT lShldr
        {
          OFFSET 8.77824 -1.95073 1.46304
          CHANNELS 3 Zrotation Xrotation Yrotation
          JOINT lForeArm
          {
            OFFSET 28.1742 -1.7115 0.48768
            CHANNELS 3 Zrotation Xrotation Yrotation
            JOINT lHand
            {
              OFFSET 22.5879 0.773209 7.07136
              CHANNELS 3 Zrotation Xrotation Yrotation
              JOINT lThumb1
              {
                OFFSET 1.2192 -0.487915 3.41376
                CHANNELS 3 Zrotation Xrotation Yrotation
                JOINT lThumb2
                {
                  OFFSET 3.37035 -0.52449 3.41376
                  CHANNELS 3 Zrotation Xrotation Yrotation
                  End Site
                  {
                    OFFSET 1.78271 -1.18214 1.43049
                  }
                }
              }
              JOINT lIndex1
              {
                OFFSET 7.75947 0.938293 5.60832
                CHANNELS 3 Zrotation Xrotation Yrotation
                JOINT lIndex2
                {
                  OFFSET 2.54057 -0.884171 1.56538
                  CHANNELS 3 Zrotation Xrotation Yrotation
                  End Site
                  {
                    OFFSET 1.62519 -0.234802 1.16502
                  }
                }
              }
              JOINT lMid1
              {
                OFFSET 8.24714 1.18213 3.41376
                CHANNELS 3 Zrotation Xrotation Yrotation
                JOINT lMid2
                {
                  OFFSET 3.10165 -0.590103 1.0647
                  CHANNELS 3 Zrotation Xrotation Yrotation
                  End Site
                  {
                    OFFSET 2.48547 -0.328903 0.83742
                  }
                }
              }
              JOINT lRing1
              {
                OFFSET 8.82822 0.546677 1.51678
                CHANNELS 3 Zrotation Xrotation Yrotation
                JOINT lRing2
                {
                  OFFSET 2.60934 -0.819778 -0.0198488
                  CHANNELS 3 Zrotation Xrotation Yrotation
                  End Site
                  {
                    OFFSET 2.33842 -0.294052 0.168128
                  }
                }
              }
              JOINT lPinky1
              {
                OFFSET 8.27202 -0.0477905 -0.4584
                CHANNELS 3 Zrotation Xrotation Yrotation
                JOINT lPinky2
                {
                  OFFSET 1.82734 -0.647385 -0.700984
                  CHANNELS 3 Zrotation Xrotation Yrotation
                  End Site
                  {
                    OFFSET 1.69225 -0.51767 -0.607171
                  }
                }
              }
            }
          }
        }
      }
    }
  }
  JOINT rButtock
  {
    OFFSET -8.77824 4.35084 1.2192
    CHANNELS 3 Zrotation Xrotation Yrotation
    JOINT rThigh
    {
      OFFSET 0 -1.70687 -2.19456
      CHANNELS 3 Zrotation Xrotation Yrotation
      JOINT rShin
      {
        OFFSET 0 -36.8199 0.73152
        CHANNELS 3 Zrotation Xrotation Yrotation
        JOINT rFoot
        {
          OFFSET 0.73152 -45.1104 -5.12064
          CHANNELS 3 Zrotation Xrotation Yrotation
          End Site
          {
            OFFSET -1.1221 -3.69964 12.103
          }
        }
      }
    }
  }
  JOINT lButtock
  {
    OFFSET 8.77824 4.35084 1.2192
    CHANNELS 3 Zrotation Xrotation Yrotation
    JOINT lThigh
    {
      OFFSET 0 -1.70687 -2.19456
      CHANNELS 3 Zrotation Xrotation Yrotation
      JOINT lShin
      {
        OFFSET 0 -36.8199 0.73152
        CHANNELS 3 Zrotation Xrotation Yrotation
        JOINT lFoot
        {
          OFFSET -0.73152 -45.1104 -5.12064
          CHANNELS 3 Zrotation Xrotation Yrotation
          End Site
          {
            OFFSET 1.1221 -3.69964 12.103
          }
        }
      }
    }
  }
}
MOTION
Frames:	4
Frame Time:	0.03333
-6.873600000000001 50.0398 -123.2288 -18.143381 -29.369819 15.296172 15.96975 7.717981 -45.087147 5.132178 -3.341004 48.6251 -9.732755 22.861354 -71.776058 37.745684 5.983376 94.074646 0.003373 -0.0 -0.003861 -0.001491 -0.0 0.002455 3.575311 -30.746483 -5.971411 145.352626 35.101756 -107.226138 -117.351097 -21.257137 17.091349 174.09026 -66.985404 150.186213 176.627082 -20.584642 88.653605 -161.324559 1.345467 90.110396 44.588602 -63.435661 3.840188 10.39545 10.104775 -2.651934 -145.505868 29.173283 132.870234 -0.472075 10.573456 2.082789 -145.116184 3.108922 179.895766 -157.072863 58.330676 173.514642 -95.77477 -48.148925 -94.037951 -62.792066 -53.668361 -63.720919 -3.360862 -27.888346 5.44877 111.04553 -4.128642 -167.683346 1.007851 4.666974 62.566715 -126.041767 -55.597405 -118.653996 7.125419 6.853867 -1.50923 141.461646 -46.64302 -115.418535 159.993311 -32.974591 -122.698915 160.144618 -16.576736 -119.524025 159.375526 -2.722129 -142.603858 -12.804675 -28.43752 1.046212 145.123757 1.02851 179.453032 -11.021977 63.357355 0.655039 146.34783 15.871876 142.852496 144.526749 3.088168 139.456888 179.969605 75.747921 0.024532 111.159388 78.330758 -41.310482 -46.258909 -5.69022 -111.782361 107.584485 11.053835 170.8125 0.009668 0.000758 0.008789 93.919423 -54.179157 156.655468 86.207234 19.264976 -165.382373 2.9276 -41.918626 87.954666
-6.7763 50.01409999999999 -123.2698 -17.934121 -29.19734 15.305566 11.931853 7.300017 59.418725 -2.266059 -7.288677 -55.995496 11.796404 22.065366 89.653284 -33.671763 4.018607 -66.416046 0.004452 0.0 0.003231 -0.001981 0.0 -0.001696 -0.405996 2.367447 0.534744 130.024436 55.686122 -72.901395 102.914935 59.70087 105.068171 -135.659677 47.7111 113.456973 4.336917 -4.318399 -0.505389 -21.278839 19.686909 16.235075 4.527262 -7.685787 -2.342307 -115.953418 36.432461 91.406781 -169.682789 -35.000691 145.369626 -154.619566 18.677467 138.718535 -145.117097 -0.109985 -179.094178 12.110418 37.194098 -4.783079 -31.548707 -42.154303 -30.507687 -1.745177 -12.192823 -4.723487 158.840741 -35.868125 -167.993439 -50.376705 49.777608 67.954281 115.540718 40.000547 -133.34478 -10.07624 -3.937683 -10.37861 160.989666 1.298636 -89.04925 60.506833 -7.290329 -20.274406 13.527854 18.436275 -9.033901 -130.63068 -60.19746 -73.354289 174.520562 -47.611868 -144.526756 10.254275 30.887881 -8.319388 145.107392 -0.968525 178.824016 -11.702596 21.601779 6.515077 4.964838 -11.488261 4.653229 -17.651362 51.938907 -9.355681 -0.001661 1.2e-05 8.3e-05 -11.260875 9.300363 -121.104829 -45.153886 -15.133217 -102.694936 139.140427 4.388275 176.350548 0.001211 0.000965 0.000148 95.120927 -54.659707 -168.109698 89.424858 -27.435806 -7.994978 -20.746482 38.450818 -67.085922
-6.6683 49.9972 -123.3018 -17.650289 -29.158038 15.210485 11.218948 6.058691 94.36549 -4.801679 -5.233523 -91.069321 4.78402 33.226191 171.496475 -12.075053 43.761192 -143.714562 0.004517 -0.0 -0.000835 -0.000526 0.0 -0.000969 -93.111707 67.576127 96.345425 -98.470355 0.536983 134.18618 172.301753 8.531495 -68.958936 -14.313435 -7.01316 -3.209372 157.492997 -35.303342 82.020569 -59.104403 7.978168 8.10324 -3.92117 6.076265 2.351959 -170.404727 -24.77479 108.972606 -164.011414 -17.265941 144.55119 -4.158868 19.083553 4.179497 -145.118454 0.244057 -179.206432 -155.381945 -0.652056 -179.147332 -9.72815 -20.151708 -9.202609 -153.61413 35.708178 -148.128839 11.743466 39.022369 -13.445529 103.906737 17.883787 -110.069431 158.829997 -12.717399 150.832116 1.867741 36.098145 -5.941921 3.876011 3.779194 -0.719541 154.360589 -63.473754 -116.104134 159.560451 -32.21412 -122.681053 173.941473 -40.902783 -115.997918 -172.213596 -67.118966 -136.938921 8.436232 27.672047 -6.91296 0.003331 -0.230534 0.072314 1.460857 55.8047 -13.951934 150.586931 31.060861 146.370632 160.483438 50.304049 146.898525 -179.99613 75.748559 -0.003412 107.703928 75.809024 161.560357 37.433318 -10.907672 -31.62296 -171.935285 7.858305 97.682927 179.998841 75.750253 0.001191 -143.095171 -15.151594 161.609362 117.12332 -75.432818 100.63779 -171.422131 18.892521 154.98709
-6.554200000000001 49.9918 -123.30879999999999 -17.276913 -29.298652 14.976465 11.008886 5.345365 118.80787 -5.706081 -3.088667 -115.420126 -9.854396 23.793014 -75.999939 38.891531 8.459646 97.22349 -0.001519 -0.0 0.001672 0.004121 0.0 0.000948 -137.541591 47.522159 141.665794 63.406621 -9.173604 69.031563 7.822579 -40.507055 111.696995 -11.462801 -16.604784 -5.11847 -0.066332 0.065448 0.009518 -82.735107 23.633682 75.753947 -158.91129 -31.065676 122.643787 20.209631 -15.818366 -10.829912 7.76705 -24.368527 -2.98796 -6.650722 24.691518 5.516913 0.005215 0.971259 0.305146 11.369314 -23.777883 -2.860691 -98.461141 -47.250868 -96.695942 -150.84865 25.869838 -145.352753 147.606674 29.256693 -152.404342 -141.353145 -17.427186 -175.485578 5.939465 -2.315551 -29.250957 5.515551 46.511446 -6.261924 36.04943 27.978702 -14.389 125.435822 -24.936075 -96.821063 -55.346004 -68.763538 -11.656151 -64.811587 -56.912698 -12.755679 142.322497 33.964694 -130.211399 163.932676 -7.167787 -143.256872 145.123338 1.68202 179.655742 137.582635 -61.968395 159.484797 -8.413221 26.595754 -7.401311 1.290106 -8.386494 2.954007 0.00129 -0.000169 0.000643 -12.187823 8.570161 -133.420295 -43.263942 -25.194512 -84.045625 -174.776951 2.839339 -161.408791 -179.999302 75.749811 -0.000183 -143.932632 -14.479107 130.855322 88.951182 -51.959171 -12.525827 -128.378645 43.099431 45.431767
